<?xml version="1.0" encoding="UTF-8"?>
<svg width="1306px" height="155px" viewBox="0 0 1306 155" version="1.1" xmlns="http://www.w3.org/2000/svg" xmlns:xlink="http://www.w3.org/1999/xlink">
    <!-- Generator: Sketch 50.2 (55047) - http://www.bohemiancoding.com/sketch -->
    <title>sarashino m.</title>
    <desc>Created with Sketch.</desc>
    <defs></defs>
    <g id="Page-1" stroke="none" stroke-width="1" fill="none" fill-rule="evenodd">
        <g id="Group" transform="translate(-988.000000, -2142.000000)" fill="#000000">
            <path d="M1243.93046,2222.95775 C1243.99229,2222.18758 1244.17574,2221.54685 1244.77005,2221.448 C1247.13691,2221.05433 1251.65204,2221.73793 1252.59393,2221.64771 L1261.86103,2221.448 C1275.76168,2221.448 1276.92006,2221.64771 1285.49213,2219.85028 C1288.73561,2219.05142 1292.44245,2218.45227 1294.9909,2216.45512 C1297.076,2214.8574 1301.01451,2212.46082 1302.86793,2210.46367 C1309.12322,2204.07278 1313.29342,2195.0856 1313.29342,2187.89585 C1313.06174,2182.90297 1312.13503,2176.31237 1310.28161,2172.51779 C1303.56296,2159.13687 1298.00271,2158.33801 1288.27226,2154.54342 C1287.8089,2154.34371 1277.61509,2152.34656 1276.92006,2152.14684 C1276.45671,2152.14684 1275.76168,2151.94713 1275.29832,2151.94713 L1261.86103,2151.14826 C1258.38587,2150.94855 1255.37406,2150.74883 1250.50884,2150.74883 C1249.52009,2150.74883 1245.85119,2152.36149 1244.77005,2151.94713 C1243.80828,2151.57852 1243.72191,2150.06838 1243.30153,2149.06576 C1243.29896,2148.82848 1243.29639,2148.59064 1243.29381,2148.35225 C1243.29381,2145.75596 1245.0938,2145.55624 1246.29379,2145.55624 L1250.49377,2145.55624 C1250.88361,2145.5238 1253.82606,2145.78754 1254.29375,2145.75596 C1256.70527,2145.59309 1257.4186,2145.15681 1259.09372,2145.15681 C1262.2937,2145.15681 1263.49369,2145.15681 1265.09369,2145.35653 C1266.29368,2145.55624 1267.69367,2145.75596 1270.09366,2145.75596 L1271.29365,2145.75596 C1278.09361,2146.15539 1288.49355,2147.15396 1293.49353,2149.15111 C1296.49351,2150.14969 1302.09348,2153.14542 1304.29347,2154.54342 C1309.69344,2157.93858 1315.2934,2165.92719 1317.29339,2173.71608 C1318.09339,2176.7118 1319.49338,2180.70611 1319.49338,2183.90155 C1319.49338,2187.09699 1319.09338,2191.49073 1318.29339,2196.08417 C1318.29339,2196.28389 1317.69339,2198.48076 1317.69339,2198.68047 C1317.29339,2201.6762 1316.4934,2202.87449 1315.2934,2205.27107 C1314.29341,2207.26822 1313.09342,2209.46509 1311.89342,2211.26253 C1311.09343,2212.2611 1309.09344,2214.65768 1308.09344,2215.45654 C1305.09346,2217.85313 1303.89347,2219.85028 1300.29349,2222.04715 C1296.09351,2224.44373 1290.89354,2226.04145 1285.09357,2226.44088 L1289.29355,2232.63205 L1291.29354,2235.62778 C1293.89352,2240.22122 1295.49351,2243.8161 1296.29351,2244.81467 L1298.0935,2247.8104 C1298.0935,2247.8104 1300.29349,2250.4067 1302.09348,2254.401 C1305.09346,2258.59502 1306.69345,2262.78904 1308.09344,2264.58647 C1312.09342,2269.77907 1314.49341,2275.17138 1318.09339,2280.56369 L1320.09338,2283.75913 L1321.69337,2286.35543 L1324.69335,2291.94745 C1326.29334,2294.14432 1325.49335,2295.74204 1323.69336,2295.94175 C1320.29338,2296.14147 1319.69338,2294.94318 1318.69339,2293.14574 L1317.49339,2291.14859 C1316.8934,2290.15001 1316.4934,2289.35115 1315.8934,2288.75201 L1309.49344,2277.96739 L1309.09344,2276.96881 L1305.29346,2270.97736 L1302.69347,2266.38391 L1300.89348,2263.38818 C1300.69349,2263.18847 1300.29349,2262.58932 1300.29349,2262.38961 L1298.6935,2260.39245 L1295.49351,2255.00015 L1289.09355,2243.8161 C1288.29356,2242.21838 1286.69356,2239.82179 1285.09357,2237.42521 C1284.49358,2236.62635 1283.89358,2235.42806 1283.29358,2234.82891 L1278.69361,2227.04002 L1273.29364,2227.04002 C1272.69364,2227.04002 1265.09369,2226.84031 1264.29369,2226.84031 C1261.09371,2226.84031 1258.29372,2227.43945 1254.29375,2227.23974 C1253.29375,2227.23974 1250.49377,2227.43945 1249.49377,2227.43945 C1249.49377,2228.0386 1249.29377,2229.03718 1249.29377,2229.83604 L1248.89378,2238.6235 L1248.89378,2246.01296 C1249.09377,2248.60926 1249.09377,2252.00442 1249.09377,2254.60072 C1249.09377,2258.19559 1248.89378,2261.59075 1249.29377,2265.38533 C1249.69377,2271.77622 1249.89377,2278.96596 1249.69377,2285.95599 L1249.69377,2289.75058 L1249.89377,2294.74346 C1249.89377,2296.5409 1244.4938,2296.74061 1244.4938,2294.34403 L1244.2938,2292.14716 L1244.2938,2279.36539 C1243.8938,2272.57508 1243.49381,2263.38818 1243.6938,2256.79758 C1243.6938,2252.80328 1243.6938,2247.61068 1243.49381,2243.8161 L1243.49381,2242.41809 C1243.49381,2242.21838 1243.29381,2241.81895 1243.6938,2234.42948 L1243.8938,2231.43376 C1243.8938,2231.43376 1243.6938,2225.84173 1243.8938,2225.24259 C1243.91276,2224.95865 1243.92498,2224.19704 1243.93046,2222.95775 Z M1062,2235.64895 C1061.34505,2232.84207 1059.45497,2228.72826 1057.45498,2226.98014 C1055.45498,2225.23202 1051.05502,2222.04715 1049.25503,2221.448 C1046.58459,2220.04999 1044.65506,2219.05142 1041.45508,2217.85313 L1038.25509,2216.65484 L1030.05514,2213.45939 C1019.4552,2209.46509 1010.25525,2204.87164 1003.45529,2199.87876 C1001.8553,2198.68047 1000.05531,2197.6819 998.055319,2195.48503 C994.055342,2190.69187 990.85536,2187.29671 989.255368,2182.70326 C987.655377,2178.10981 987.655377,2171.11978 988.855371,2168.12405 L989.655366,2165.92719 C990.85536,2162.73174 992.255352,2160.13545 994.255341,2157.93858 C994.655338,2157.33943 998.255318,2154.74314 998.655316,2154.34371 C1001.8553,2151.34798 1002.65529,2151.34798 1007.05527,2149.15111 L1008.65526,2148.35225 C1014.65523,2145.55624 1022.85518,2144.9571 1031.05513,2145.15681 C1036.05511,2145.35653 1041.45508,2146.15539 1045.65505,2147.35368 C1048.45504,2148.15254 1050.65502,2148.9514 1052.45501,2150.14969 L1056.25499,2152.34656 C1057.45499,2153.14542 1059.45498,2154.14399 1063.45495,2157.33943 L1065.05494,2158.53773 L1066.85493,2159.93573 C1069.05492,2161.93288 1066.05494,2166.32662 1063.65495,2164.52918 L1062.45496,2163.5306 L1060.45497,2162.1326 C1059.85497,2161.93288 1058.45498,2160.93431 1058.05498,2160.53488 C1056.85499,2159.5363 1055.455,2158.33801 1053.65501,2156.94 C1051.65502,2155.74171 1048.25504,2154.74314 1044.85506,2153.34513 C1040.85508,2151.74741 1032.05513,2150.3494 1029.05515,2150.54912 C1021.25519,2151.14826 1022.25518,2150.74883 1013.25523,2152.54627 C1011.65524,2152.9457 1009.85525,2153.94428 1008.05526,2154.94285 C1005.45528,2156.14114 1003.85529,2157.73886 1001.6553,2158.93716 C1000.6553,2159.5363 999.855309,2160.53488 999.055314,2161.33374 C996.05533,2164.32947 993.655344,2167.12548 993.655344,2171.91864 C993.655344,2174.31522 993.455345,2176.7118 994.055342,2178.90867 C994.255341,2179.70753 994.455339,2180.50639 994.855337,2181.30525 C995.255335,2182.30383 996.855326,2184.90013 997.455323,2185.8987 C999.055314,2188.69471 1001.2553,2190.49215 1004.65528,2193.08845 C1013.05524,2199.27962 1016.65522,2201.6762 1026.65516,2205.87022 C1028.05515,2206.46936 1033.85512,2208.66623 1033.85512,2208.66623 C1039.05509,2210.46367 1044.65506,2213.45939 1050.05503,2215.25683 C1054.96989,2217.85313 1057.25499,2219.85028 1060.45497,2221.448 C1061.05497,2221.84743 1062.45495,2224.67252 1065.85493,2229.74695 C1066.88067,2232.35087 1068.82766,2242.15759 1066.65494,2248.70627 C1065.55995,2252.00661 1063.75118,2256.76348 1063.05496,2258.3837 C1059.25998,2267.21519 1053.05501,2275.69095 1050.45503,2275.69095 C1047.85504,2275.69095 1051.93019,2275.16616 1054.255,2266.64523 C1055.27537,2262.90539 1058.65578,2257.42495 1060.45497,2252.53781 C1062.54367,2246.86428 1062.65495,2238.45583 1062,2235.64895 Z M1208.37418,2288.75201 L1208.97418,2290.74916 L1210.17417,2294.34403 C1210.77417,2296.5409 1206.37419,2295.94175 1206.37419,2295.94175 C1204.9742,2295.74204 1202.97421,2291.3483 1202.17422,2288.95172 L1201.77422,2287.95315 L1201.17422,2286.55514 C1200.77422,2285.15713 1200.17423,2283.55941 1199.77423,2282.76055 C1198.77424,2281.16283 1198.17424,2278.1671 1197.57424,2276.16995 L1195.57425,2271.77622 L1193.57426,2266.58362 C1193.17427,2264.58647 1192.37427,2261.99018 1191.57428,2260.39245 C1190.37428,2257.39673 1189.17429,2254.00157 1188.17429,2249.40812 L1187.1743,2245.81325 L1186.7743,2244.41524 C1186.3743,2243.21695 1185.77431,2241.2198 1185.17431,2240.02151 L1183.17432,2234.03005 C1182.97432,2233.83034 1182.57433,2232.83176 1182.57433,2232.43233 L1172.17438,2232.63205 C1169.1744,2232.63205 1165.97442,2232.43233 1162.77444,2232.43233 C1158.37446,2233.03148 1150.7745,2232.23262 1150.7745,2232.23262 C1145.17454,2232.23262 1137.97458,2232.23262 1129.17462,2232.23262 C1127.07618,2233.1351 1125.57837,2233.1351 1124.68121,2232.23262 C1123.78405,2231.33013 1123.78405,2229.7368 1124.68121,2227.45261 L1128.37463,2216.65484 L1134.77459,2202.07563 L1137.17458,2194.68617 L1137.97458,2192.08987 L1146.97453,2167.72462 C1148.97451,2161.93288 1151.3745,2154.94285 1152.37449,2151.74741 C1153.37449,2148.35225 1154.77448,2145.95567 1157.37447,2145.95567 C1158.77446,2145.95567 1158.97446,2146.55482 1159.57445,2147.35368 L1159.97445,2148.15254 C1160.77445,2149.94997 1162.17444,2153.14542 1163.97443,2159.33659 L1169.5744,2174.91437 L1172.57438,2182.70326 C1173.37438,2184.5007 1173.97437,2187.09699 1174.37437,2188.69471 L1174.77437,2189.89301 L1175.97436,2193.88731 L1177.97435,2200.27819 C1178.57435,2202.47506 1179.37434,2204.67193 1180.17434,2206.86879 L1182.57433,2213.45939 L1185.57431,2222.04715 L1190.77428,2238.82322 L1193.77426,2248.01012 C1194.37426,2250.80613 1195.77425,2254.80043 1197.17424,2258.3953 C1197.17424,2258.79473 1197.77424,2259.99302 1197.97424,2260.39245 C1199.17423,2263.18847 1200.37423,2266.38391 1200.97422,2268.38106 L1208.37418,2288.75201 Z M1164.17443,2176.51209 C1163.37443,2172.51779 1161.97444,2168.7232 1160.17445,2164.52918 L1158.37446,2160.13545 L1156.97447,2154.94285 C1156.17447,2157.73886 1154.77448,2161.13402 1153.97449,2163.93003 C1151.1745,2172.91722 1147.77452,2182.50354 1145.57453,2188.89443 C1145.17454,2190.09272 1144.17454,2192.68902 1144.17454,2192.68902 L1138.97457,2207.26822 C1136.97458,2211.86167 1135.77459,2213.65911 1134.77459,2216.85455 C1134.3746,2217.65341 1133.7746,2219.25113 1133.7746,2219.65056 L1132.9746,2221.84743 C1132.17461,2223.64487 1131.17461,2225.4423 1130.57462,2227.04002 L1133.7746,2227.04002 C1134.57459,2227.04002 1145.37453,2227.23974 1146.17453,2227.23974 L1155.97447,2227.04002 C1162.77444,2227.23974 1166.57442,2227.43945 1170.1744,2227.43945 C1173.17438,2227.43945 1176.37436,2227.04002 1180.97433,2226.84031 L1176.97436,2215.65626 L1176.17436,2212.2611 L1175.37437,2209.86452 C1173.37438,2202.47506 1169.5744,2191.29101 1166.97441,2184.5007 L1166.17442,2182.30383 C1165.37442,2180.30668 1164.77443,2178.50924 1164.17443,2176.51209 Z M1468.81263,2288.75201 L1469.41263,2290.74916 L1470.61262,2294.34403 C1471.21262,2296.5409 1466.81265,2295.94175 1466.81265,2295.94175 C1465.41265,2295.74204 1463.41266,2291.3483 1462.61267,2288.95172 L1462.21267,2287.95315 L1461.61267,2286.55514 C1461.21268,2285.15713 1460.61268,2283.55941 1460.21268,2282.76055 C1459.21269,2281.16283 1458.61269,2278.1671 1458.01269,2276.16995 L1456.01271,2271.77622 L1454.01272,2266.58362 C1453.61272,2264.58647 1452.81272,2261.99018 1452.01273,2260.39245 C1450.81274,2257.39673 1449.61274,2254.00157 1448.61275,2249.40812 L1447.61275,2245.81325 L1447.21276,2244.41524 C1446.81276,2243.21695 1446.21276,2241.2198 1445.61276,2240.02151 L1443.61278,2234.03005 C1443.41278,2233.83034 1443.01278,2232.83176 1443.01278,2232.43233 L1432.61284,2232.63205 C1429.61285,2232.63205 1426.41287,2232.43233 1423.21289,2232.43233 C1418.81291,2233.03148 1411.21296,2232.23262 1411.21296,2232.23262 C1402.813,2232.23262 1395.21305,2232.83176 1389.61308,2232.23262 L1387.21309,2237.42521 C1387.01309,2238.22407 1386.4131,2239.42236 1386.2131,2240.02151 L1384.01311,2245.61353 L1379.41313,2256.79758 L1375.61316,2264.38676 L1373.81317,2269.37964 L1368.6132,2281.96169 L1367.8132,2283.55941 L1367.0132,2284.95742 L1362.21323,2294.94318 C1359.81324,2298.93748 1355.41327,2296.34118 1356.21326,2293.9446 C1356.41326,2293.54517 1356.41326,2293.34546 1356.41326,2293.14574 L1357.21326,2291.54802 L1358.01325,2290.15001 L1362.81323,2280.7634 L1364.61322,2276.56938 C1366.21321,2272.77479 1368.2132,2267.98163 1369.61319,2264.18704 L1376.01315,2249.20841 L1377.41315,2245.81325 C1378.61314,2242.81752 1380.01313,2240.02151 1381.01313,2237.42521 C1381.01313,2237.42521 1381.81312,2235.42806 1382.01312,2234.82891 L1383.41311,2230.43518 L1388.81308,2216.65484 L1395.21305,2202.07563 L1397.61303,2194.68617 L1398.41303,2192.08987 L1407.41298,2167.72462 C1409.41297,2161.93288 1411.81295,2154.94285 1412.81295,2151.74741 C1413.81294,2148.35225 1415.21293,2145.95567 1417.81292,2145.95567 C1419.21291,2145.95567 1419.41291,2146.55482 1420.01291,2147.35368 L1420.41291,2148.15254 C1421.2129,2149.94997 1422.61289,2153.14542 1424.41288,2159.33659 L1430.01285,2174.91437 L1433.01283,2182.70326 C1433.81283,2184.5007 1434.41283,2187.09699 1434.81282,2188.69471 L1435.21282,2189.89301 L1436.41282,2193.88731 L1438.4128,2200.27819 C1439.0128,2202.47506 1439.8128,2204.67193 1440.61279,2206.86879 L1443.01278,2213.45939 L1446.01276,2222.04715 L1451.21273,2238.82322 L1454.21272,2248.01012 C1454.81271,2250.80613 1456.21271,2254.80043 1457.6127,2258.3953 C1457.6127,2258.79473 1458.21269,2259.99302 1458.41269,2260.39245 C1459.61269,2263.18847 1460.81268,2266.38391 1461.41268,2268.38106 L1468.81263,2288.75201 Z M1424.61288,2176.51209 C1423.81289,2172.51779 1422.41289,2168.7232 1420.6129,2164.52918 L1418.81291,2160.13545 L1417.41292,2154.94285 C1416.61293,2157.73886 1415.21293,2161.13402 1414.41294,2163.93003 C1411.61295,2172.91722 1408.21297,2182.50354 1406.01299,2188.89443 C1405.61299,2190.09272 1404.61299,2192.68902 1404.61299,2192.68902 L1399.41302,2207.26822 C1397.41303,2211.86167 1396.21304,2213.65911 1395.21305,2216.85455 C1394.81305,2217.65341 1394.21305,2219.25113 1394.21305,2219.65056 L1393.41306,2221.84743 C1392.61306,2223.64487 1391.61307,2225.4423 1391.01307,2227.04002 L1394.21305,2227.04002 C1395.01305,2227.04002 1405.81299,2227.23974 1406.61298,2227.23974 L1416.41293,2227.04002 C1423.21289,2227.23974 1427.01287,2227.43945 1430.61285,2227.43945 C1433.61283,2227.43945 1436.81281,2227.04002 1441.41279,2226.84031 L1437.41281,2215.65626 L1436.61281,2212.2611 L1435.81282,2209.86452 C1433.81283,2202.47506 1430.01285,2191.29101 1427.41287,2184.5007 L1426.61287,2182.30383 C1425.81288,2180.30668 1425.21288,2178.50924 1424.61288,2176.51209 Z M1512.78455,2203.4519 C1511.12028,2202.1749 1509.60586,2200.774 1507.82185,2198.21812 C1504.29169,2192.67333 1501.4259,2188.71382 1500.26766,2183.59471 C1499.10942,2178.47561 1499.77239,2170.89787 1501.25194,2167.75486 L1502.25726,2165.44301 C1503.75575,2162.08348 1505.39666,2159.39091 1507.5974,2157.18365 C1508.0527,2156.56899 1511.88523,2154.06816 1512.32159,2153.67001 C1515.79352,2150.70131 1516.59047,2150.77103 1521.18207,2148.77294 L1522.85174,2148.04636 C1529.09406,2145.5382 1537.31963,2145.60335 1545.46944,2146.53453 C1550.43145,2147.18681 1555.7351,2148.52348 1559.80544,2150.18857 C1562.51901,2151.29863 1564.63485,2152.3564 1566.31434,2153.81232 L1569.8915,2156.52509 C1571.01116,2157.4957 1572.90883,2158.75254 1576.59051,2162.56527 L1578.07077,2164.00376 L1579.73131,2165.67619 C1581.73351,2168.033 1578.32822,2172.53468 1576.10784,2170.37695 L1575.00713,2169.18983 L1573.14734,2167.49997 C1572.56857,2167.23117 1571.26862,2166.02662 1570.90802,2165.55874 C1569.80731,2164.37162 1568.52629,2162.95056 1566.86575,2161.27814 C1564.98702,2159.80479 1561.69468,2158.42592 1558.44024,2156.61405 C1554.60701,2154.53337 1545.97314,2152.25086 1542.96563,2152.2059 C1535.13853,2152.17561 1536.17261,2151.82975 1527.03643,2152.99392 C1525.40464,2153.28748 1523.51679,2154.21314 1521.62894,2155.13879 C1518.9252,2156.21123 1517.17976,2157.80383 1514.87449,2158.91113 C1513.82148,2159.4735 1512.92982,2160.48631 1512.0571,2161.28261 C1508.7844,2164.26875 1506.12836,2167.09067 1505.67376,2172.28683 C1505.44645,2174.88491 1505.01991,2177.46556 1505.40927,2179.89943 C1505.53274,2180.78289 1505.65621,2181.66635 1505.97891,2182.56724 C1506.28268,2183.68463 1507.63034,2186.63867 1508.13334,2187.7735 C1509.46206,2190.94404 1511.4832,2193.08434 1514.624,2196.19526 C1522.40479,2203.63907 1525.76376,2206.55091 1535.32788,2211.96911 C1536.66572,2212.74065 1542.23525,2215.62772 1542.23525,2215.62772 C1542.23525,2215.62772 1524.57916,2212.50203 1512.78455,2203.4519 Z M1563.64258,2231.79294 C1565.24257,2233.09694 1567.04256,2234.18361 1569.04255,2236.57428 C1573.04253,2241.79029 1576.24251,2245.48497 1577.8425,2250.48364 C1579.44249,2255.48232 1579.44249,2263.089 1578.2425,2266.34901 L1577.4425,2268.73968 C1576.24251,2272.21702 1574.84252,2275.04236 1572.84253,2277.43304 C1572.44253,2278.08504 1568.84255,2280.91038 1568.44255,2281.34504 C1565.24257,2284.60505 1564.44257,2284.60505 1560.0426,2286.99572 L1558.44261,2287.86506 C1552.44264,2290.90773 1544.24269,2291.55973 1536.04273,2291.3424 C1531.04276,2291.12507 1525.64279,2290.25573 1521.44281,2288.95173 C1518.64283,2288.08239 1516.44284,2287.21306 1514.64285,2285.90905 L1510.84287,2283.51838 C1509.64288,2282.64905 1507.64289,2281.56238 1503.64291,2278.08504 L1502.04292,2276.78103 L1500.24293,2275.2597 C1498.04295,2273.08636 1501.04293,2268.30502 1503.44291,2270.26102 L1504.64291,2271.34769 L1506.6429,2272.86903 C1507.24289,2273.08636 1508.64289,2274.17303 1509.04288,2274.6077 C1510.24288,2275.69437 1511.64287,2276.99837 1513.44286,2278.51971 C1515.44285,2279.82371 1518.84283,2280.91038 1522.24281,2282.43171 C1526.24279,2284.17038 1535.04274,2285.69172 1538.04272,2285.47439 C1545.84268,2284.82239 1544.84268,2285.25705 1553.84263,2283.30105 C1555.44262,2282.86638 1557.24261,2281.77971 1559.0426,2280.69304 C1561.64259,2279.38904 1563.24258,2277.65037 1565.44257,2276.34637 C1566.44256,2275.69437 1567.24256,2274.6077 1568.04255,2273.73836 C1571.04254,2270.47835 1573.44252,2267.43568 1573.44252,2262.21967 C1573.44252,2259.61166 1573.64252,2257.00366 1573.04253,2254.61299 C1572.84253,2253.74365 1572.64253,2252.87432 1572.24253,2252.00498 C1571.84253,2250.91831 1570.24254,2248.09297 1569.64254,2247.0063 C1568.04255,2243.96363 1565.84257,2242.00763 1562.44258,2239.18229 C1554.04263,2232.44494 1548.04267,2227.554 1538.04272,2222.98999 C1536.64273,2222.33799 1556.84262,2226.35959 1563.64258,2231.79294 Z M1622.2,2159.47416 C1622.2,2157.67672 1622.4,2155.87929 1622.4,2154.681 L1622.4,2153.48271 C1622.4,2151.28584 1622.6,2149.88783 1622.6,2148.88926 L1622.6,2147.49125 C1622.6,2145.29439 1627.19997,2145.89353 1627.79997,2147.69097 C1627.99997,2148.0904 1627.99997,2148.88926 1627.99997,2149.88783 L1627.99997,2150.88641 C1627.99997,2151.48555 1628.19997,2152.28442 1628.19997,2153.08328 L1628.19997,2155.28014 C1627.99997,2159.87359 1627.99997,2160.07331 1627.99997,2164.06761 L1627.99997,2167.46277 C1627.79997,2173.85365 1627.59997,2180.04482 1627.59997,2186.63542 C1627.59997,2192.82659 1627.59997,2198.01919 1627.79997,2204.60979 L1627.79997,2211.99925 C1627.79997,2212.99782 1627.99997,2213.9964 1627.99997,2215.3944 C1633.19994,2215.79383 1629.79996,2215.79383 1634.99993,2215.79383 C1639.5999,2215.79383 1644.39987,2215.59412 1648.79985,2215.79383 C1652.59983,2215.99355 1656.39981,2216.19327 1659.99979,2216.19327 C1664.99976,2216.19327 1679.79968,2216.19327 1684.79965,2215.99355 C1688.99963,2215.79383 1696.19958,2215.79383 1700.39956,2215.79383 L1700.39956,2206.60694 C1700.39956,2203.61121 1697.80469,2200.09701 1697.80469,2200.09701 C1697.80469,2199.09843 1700.79956,2194.89068 1701.39956,2194.09182 C1702.39955,2192.4941 1704.79954,2193.49268 1705.39953,2193.89211 C1705.79953,2194.09182 1706.19953,2196.4884 1706.19953,2198.28584 C1706.19953,2198.95156 1706.13286,2200.59354 1705.99953,2203.21178 L1705.99953,2213.39725 C1705.99953,2216.99213 1705.79953,2216.79241 1706.19953,2222.78387 C1706.39953,2225.38016 1706.39953,2229.7739 1706.39953,2232.96934 L1706.19953,2240.55851 C1706.59953,2253.73971 1706.39953,2261.52861 1706.39953,2261.52861 C1706.39953,2267.91949 1706.19953,2274.70981 1706.39953,2280.50155 C1706.35151,2283.45312 1706.57903,2285.45028 1707.08209,2286.493 C1707.49612,2287.35117 1707.86111,2287.81401 1708.17708,2287.88151 C1708.17708,2287.88151 1707.70313,2291.08645 1705.99953,2295.48018 C1704.59954,2296.27904 1702.19955,2296.27904 1701.79955,2295.08075 C1701.19956,2293.68275 1701.19956,2292.48445 1701.19956,2290.68702 L1701.19956,2286.493 C1701.19956,2286.09357 1700.99956,2284.69556 1700.99956,2284.09642 C1700.99956,2281.10069 1700.79956,2278.70411 1700.79956,2277.50582 C1700.79956,2276.50724 1700.59956,2273.91095 1700.59956,2271.91379 L1700.79956,2259.13202 L1700.79956,2242.55567 C1700.79956,2238.76108 1700.59956,2234.76677 1700.39956,2230.77247 L1700.39956,2221.38586 C1695.99959,2221.38586 1684.39965,2221.38586 1681.99966,2221.58557 C1678.19969,2221.78529 1673.99971,2221.985 1670.79973,2221.985 L1663.59977,2221.78529 C1662.79977,2221.78529 1660.19979,2221.58557 1659.39979,2221.58557 L1641.99989,2221.58557 C1638.39991,2221.58557 1631.99994,2221.58557 1628.19997,2221.18614 C1627.99997,2223.38301 1627.99997,2226.57845 1627.99997,2228.5756 C1627.99997,2230.97219 1627.99997,2233.16905 1628.19997,2234.96649 L1628.19997,2238.76108 C1628.19997,2245.15196 1627.79997,2248.94655 1627.99997,2258.13345 L1627.99997,2279.30325 C1627.99997,2282.69841 1627.99997,2288.09072 1627.79997,2291.08645 L1627.79997,2292.68417 C1627.79997,2294.48161 1627.79997,2294.88104 1627.19997,2295.6799 C1626.39998,2296.87819 1622.6,2296.47876 1622.6,2295.08075 L1622.6,2284.49585 C1622.6,2278.30468 1622.6,2271.71408 1622.2,2265.92234 L1622.4,2258.53288 L1622.4,2252.34171 L1622.6,2235.1662 L1622.6,2213.79668 C1622.4,2212.59839 1622.4,2210.40153 1622.4,2209.60267 L1622.4,2205.40865 C1622.4,2204.8095 1622.2,2204.21036 1622.2,2203.4115 L1622.2,2197.42004 C1622,2195.6226 1622,2192.62688 1622,2191.22887 C1622,2190.2303 1622,2187.23457 1622.2,2185.43713 L1622.2,2159.47416 Z M1767.77083,2146.68669 C1768.57083,2145.68812 1771.37081,2146.08755 1771.97081,2146.68669 C1772.57081,2147.28584 1772.7708,2148.88356 1772.7708,2149.68242 L1774.42665,2154.63542 C1774.22665,2159.02916 1773.1708,2153.83656 1772.9708,2159.02916 C1772.9708,2160.02773 1772.9708,2161.22602 1772.37081,2161.62545 C1771.37081,2162.2246 1768.57083,2162.2246 1767.77083,2161.42574 C1767.17084,2160.62688 1767.17084,2160.02773 1767.17084,2158.82944 C1767.17084,2156.43286 1767.17084,2155.03485 1767.17084,2154.63542 L1767.17084,2150.681 C1767.17084,2149.48271 1767.17084,2147.28584 1767.77083,2146.68669 Z M1767.77083,2174.3551 C1768.57083,2173.35653 1771.37081,2173.75596 1771.97081,2174.3551 C1772.57081,2174.95425 1772.7708,2176.55197 1772.7708,2177.35083 L1772.7708,2186.49785 C1772.57081,2190.89158 1772.37081,2193.68759 1772.37081,2196.88304 C1772.37081,2200.07848 1772.37081,2203.07421 1772.57081,2207.06851 C1772.7708,2208.46651 1772.7708,2211.06281 1772.7708,2214.45797 L1772.7708,2233.23119 C1772.9708,2236.82607 1772.9708,2242.81752 1772.9708,2246.01296 L1772.7708,2257.19701 C1772.7708,2257.79616 1772.9708,2258.19559 1772.9708,2261.79046 C1772.7708,2265.38533 1772.57081,2270.77764 1772.7708,2274.37252 C1772.9708,2278.1671 1772.7708,2287.95315 1772.57081,2293.14574 C1772.57081,2294.14432 1772.57081,2295.34261 1771.97081,2295.74204 C1770.97081,2296.34118 1768.17083,2296.34118 1767.37084,2295.54232 C1766.77084,2294.74346 1766.77084,2294.14432 1766.77084,2292.94603 C1767.1075,2290.8811 1767.1075,2289.58504 1766.77084,2289.05783 C1765.9554,2287.78086 1765.06721,2287.98773 1765.07245,2287.13476 C1765.08762,2284.66555 1766.36476,2283.90801 1766.77084,2280.34914 C1767.14182,2277.09785 1767.20849,2270.44562 1766.97084,2260.39245 L1766.97084,2255.00015 C1766.97084,2252.60356 1767.17084,2250.00727 1767.17084,2247.41097 C1767.17084,2240.42094 1766.97084,2233.23119 1766.77084,2228.23831 L1766.97084,2222.84601 L1766.97084,2221.64771 C1766.97084,2221.04857 1767.17084,2220.44942 1767.17084,2219.85028 C1767.37084,2217.65341 1767.37084,2215.05711 1767.17084,2213.65911 L1767.17084,2212.66053 L1766.77084,2202.87449 L1766.77084,2188.89443 C1766.77084,2188.29528 1767.17084,2182.90297 1767.17084,2182.30383 L1767.17084,2178.3494 C1767.17084,2177.15111 1767.17084,2174.95425 1767.77083,2174.3551 Z M1829.6,2192.68669 C1830.39999,2191.68812 1833.19998,2192.08755 1833.79997,2192.68669 C1834.39997,2193.28584 1834.59997,2194.88356 1834.59997,2195.68242 L1834.79997,2200.0655 C1834.79997,2200.87658 1834.99997,2204.37598 1834.79997,2208.0057 C1834.59997,2211.63542 1834.79997,2214.81592 1834.79997,2215.82944 C1834.79997,2216.82802 1834.79997,2218.22602 1834.19997,2218.62545 C1833.19998,2219.2246 1830.39999,2219.2246 1829.6,2218.42574 C1829,2217.62688 1829,2217.02773 1829,2215.82944 C1829,2213.43286 1829,2212.03485 1829,2211.63542 C1828.80075,2209.21015 1828.80075,2206.75795 1829,2204.2788 C1829.19925,2201.79965 1829.19925,2199.26705 1829,2196.681 C1829,2195.48271 1829,2193.28584 1829.6,2192.68669 Z M1910.39444,2277.62833 C1910.39444,2280.79117 1910.82531,2288.57665 1908.67095,2288.57665 C1906.51658,2288.57665 1905.65484,2286.63028 1904.36222,2284.92721 L1903.0696,2282.73754 L1897.25282,2272.7624 L1892.51322,2263.76045 C1891.43604,2262.30067 1890.14342,2259.38112 1888.8508,2256.94816 L1887.34274,2254.0286 C1886.481,2252.08223 1883.89576,2248.1895 1881.95683,2245.02665 C1877.86354,2238.21436 1874.20112,2231.40206 1869.67696,2223.13 L1867.5226,2218.99396 L1865.79911,2215.83111 L1858.47427,2202.20653 L1855.24272,2195.88083 L1853.73467,2192.96128 C1852.65748,2190.77161 1851.36487,2188.33865 1849.2105,2184.68921 L1843.17828,2173.98418 L1838.86956,2165.22552 L1834.12995,2155.73697 L1831.76015,2150.87105 C1830.2521,2147.7082 1830.46754,2146.24842 1832.6219,2146.00513 C1834.9917,2145.76183 1836.71519,2147.22161 1837.3615,2148.19479 L1840.16217,2153.54731 L1846.19439,2164.73893 L1848.13332,2169.11826 C1854.59641,2182.49955 1861.92125,2195.39424 1867.95347,2206.09927 C1870.53871,2209.99201 1872.90851,2214.37134 1876.35549,2220.69704 C1876.57092,2220.94033 1877.0018,2221.42692 1879.3716,2226.29285 L1883.68033,2234.07832 C1884.97294,2236.51128 1886.26556,2238.94424 1887.55818,2240.89061 C1888.63536,2242.83698 1889.71255,2244.78335 1890.57429,2245.99983 C1891.86691,2247.9462 1892.94409,2251.59564 1897.46826,2259.62441 L1899.19175,2262.54397 L1901.56155,2267.89648 L1904.57766,2274.22218 C1904.36222,2272.03251 1904.79309,2255.24508 1904.79309,2253.78531 L1904.36222,2237.72776 C1903.71591,2226.77944 1904.57766,2222.40011 1904.36222,2216.07441 C1904.14678,2199.77357 1905.22397,2177.87692 1904.57766,2162.06267 C1904.36222,2156.95345 1904.57766,2158.89982 1904.57766,2153.30401 L1904.57766,2148.19479 C1904.57766,2144.05876 1910.39444,2146.00513 1910.39444,2147.7082 L1910.39444,2151.11435 C1910.39444,2151.60094 1911.04075,2166.6853 1910.60988,2174.47077 C1910.39444,2178.12022 1910.60988,2189.79843 1910.60988,2189.79843 C1910.60988,2191.7448 1910.179,2198.55709 1910.39444,2199.28698 C1910.39444,2199.28698 1911.04075,2210.72189 1910.39444,2219.23726 L1910.39444,2277.62833 Z M2249.04794,2273.17422 L2249.24794,2279.76482 C2249.44794,2282.36112 2249.44794,2286.75486 2249.44794,2288.95172 C2249.64794,2291.14859 2249.44794,2292.94603 2249.24794,2294.34403 C2249.04794,2296.94033 2243.84797,2296.5409 2243.84797,2294.34403 L2243.84797,2291.3483 C2243.84797,2289.75058 2243.64797,2288.15286 2243.64797,2286.75486 L2243.44798,2274.97166 L2243.44798,2272.77479 C2243.24798,2268.38106 2243.24798,2260.9916 2243.24798,2257.59644 L2243.24798,2251.20556 L2243.64797,2231.63347 C2243.44798,2229.63632 2243.24798,2226.24116 2243.24798,2224.44373 L2243.64797,2218.05284 C2243.44798,2212.86025 2243.44798,2207.26822 2243.84797,2202.07563 C2244.04797,2200.47791 2243.44798,2192.28959 2243.64797,2188.89443 C2243.84797,2186.29813 2243.84797,2180.70611 2243.84797,2177.11124 L2243.84797,2175.51351 C2243.84797,2174.91437 2244.04797,2167.92434 2244.04797,2167.32519 C2244.24797,2165.32804 2244.44797,2162.33231 2244.24797,2159.93573 L2242.84798,2162.53203 C2241.44799,2165.12833 2240.24799,2167.72462 2238.848,2169.72177 C2238.04801,2171.11978 2237.44801,2172.31807 2236.84801,2172.91722 C2236.84801,2172.91722 2234.44803,2176.51209 2231.24804,2180.90582 C2230.44805,2182.10411 2228.44806,2186.09842 2227.64806,2187.29671 C2225.44808,2190.69187 2225.44808,2191.29101 2223.64809,2193.28816 C2217.04812,2204.47221 2212.64815,2209.26538 2209.84816,2214.05854 C2208.84817,2215.45654 2202.6482,2224.44373 2201.24821,2224.44373 C2200.04822,2224.84316 2199.24822,2223.84458 2199.24822,2223.84458 C2195.04825,2218.05284 2190.04827,2211.66196 2186.44829,2205.87022 L2180.64833,2197.48218 L2176.64835,2190.49215 L2174.64836,2187.49642 C2174.64836,2187.49642 2173.04837,2185.29956 2170.44838,2181.30525 C2168.0484,2177.51067 2167.0484,2175.71323 2167.0484,2175.71323 L2160.84844,2166.32662 C2157.84845,2161.93288 2157.04846,2160.13545 2152.04849,2152.34656 L2150.2485,2149.75026 L2149.6485,2148.9514 C2148.64851,2147.35368 2148.04851,2146.15539 2149.6485,2145.75596 C2150.84849,2145.55624 2153.04848,2145.75596 2154.64847,2146.75453 C2155.84847,2147.95282 2156.04846,2148.55197 2157.64846,2150.74883 C2157.64846,2150.74883 2161.04844,2157.13972 2167.4484,2165.72747 L2172.44837,2173.91579 L2180.04833,2185.29956 C2180.24833,2185.49927 2182.44832,2189.09414 2182.84831,2189.49357 C2183.24831,2190.09272 2183.24831,2190.49215 2183.64831,2191.0913 L2185.6483,2194.28674 C2186.44829,2195.48503 2188.84828,2199.47933 2190.84827,2201.87591 C2195.64824,2208.46651 2196.64824,2211.26253 2200.84821,2216.65484 C2200.84821,2216.65484 2203.2482,2213.25968 2206.64818,2208.2668 C2208.84817,2205.07136 2216.64813,2194.08702 2216.64813,2194.08702 C2217.84812,2192.08987 2219.24811,2189.69329 2220.8481,2187.09699 C2223.44809,2182.90297 2225.24808,2179.3081 2229.64805,2173.11693 C2231.04804,2171.11978 2231.84804,2168.92291 2233.24803,2166.92576 L2238.04801,2160.33516 L2240.44799,2155.94143 L2242.24798,2153.14542 C2242.64798,2152.34656 2243.44798,2150.74883 2244.44797,2149.35083 C2245.24797,2148.15254 2246.64796,2146.15539 2247.64795,2146.15539 C2249.24794,2146.15539 2249.64794,2147.35368 2249.64794,2149.94997 L2249.64794,2151.74741 C2249.44794,2152.34656 2249.44794,2155.94143 2249.44794,2160.53488 L2249.44794,2165.12833 C2249.44794,2166.92576 2249.24794,2168.7232 2249.24794,2170.52063 L2249.24794,2172.11836 C2249.24794,2172.7175 2249.04794,2173.51636 2249.04794,2174.31522 L2249.04794,2177.9101 L2249.44794,2190.09272 C2249.44794,2194.68617 2249.44794,2207.26822 2249.24794,2208.66623 C2249.24794,2209.06566 2249.04794,2209.46509 2249.04794,2216.05569 C2249.04794,2218.25256 2249.04794,2220.44942 2249.24794,2223.24544 L2249.24794,2225.64202 C2249.64794,2227.83888 2249.44794,2233.43091 2249.24794,2235.62778 L2249.24794,2253.40242 C2249.24794,2259.39388 2249.04794,2263.98733 2249.04794,2269.37964 L2249.04794,2273.17422 Z M1993.2,2291.87846 C1986.2,2289.67846 1983.18442,2288.9474 1978.18442,2284.7474 C1976.78442,2283.5474 1976.67399,2281.5644 1975.2,2278.87846 C1974.21734,2277.08783 1972.79068,2275.55785 1970.92001,2274.28851 C1966.93073,2265.03484 1968.25047,2269.75858 1966.93073,2265.27005 C1965.61098,2260.78152 1964.47023,2254.50027 1964.27023,2248.30027 C1962.66518,2235.59291 1961.72932,2225.5059 1961.46265,2218.03923 C1962.81439,2211.71775 1962.35929,2207.45718 1962.95929,2199.25718 C1963.15929,2195.85718 1964.65036,2189.47846 1964.85036,2183.67846 C1964.85036,2181.87846 1966.19099,2168.79102 1966.93073,2167.40097 C1968.17264,2165.06728 1967.24003,2162.2135 1970.92001,2158.04807 C1974.6,2153.88263 1976,2152.47846 1977.4,2151.47846 C1983,2147.47846 1992.2,2142.67846 2003.2,2142.07846 C2006,2141.87846 2011.4,2142.07846 2014.2,2142.47846 C2019.4,2143.07846 2025.2,2145.27846 2030.2,2146.87846 C2037.2,2149.07846 2042.8,2153.27846 2045,2155.87846 C2048.4,2159.67846 2050.4,2161.07846 2053.4,2165.67846 C2054,2166.47846 2056,2170.47846 2056.6,2171.27846 C2058.8,2174.27846 2060.4,2177.27846 2061.6,2183.67846 C2062.4,2189.87846 2063.4,2200.67846 2063,2206.87846 C2063,2206.87846 2063.6,2218.67846 2063.4,2224.47846 L2063.4,2233.27846 C2063.4,2235.47846 2063.2,2237.47846 2063,2239.47846 C2062.8,2240.87846 2062.8,2242.27846 2062.8,2243.07846 C2062.8,2246.27846 2062.6,2249.47846 2061.8,2252.87846 C2060,2260.07846 2058.2,2266.27846 2055.6,2270.67846 C2051,2277.87846 2042.8,2286.07846 2033.2,2290.07846 C2033.2,2290.07846 2028.2,2292.07846 2022,2293.07846 C2017,2293.67846 2010,2294.07846 2009.8,2294.07846 C2009.6,2294.07846 2005.2,2294.07846 2001.2,2293.67846 C1996.8,2293.47846 1993.2,2291.87846 1993.2,2291.87846 Z M1995.69832,2286.78116 C1995.69832,2286.78116 1998.84017,2288.28404 2002.68021,2288.4719 C2006.17115,2288.84763 2010.01119,2288.84763 2010.18574,2288.84763 C2010.36028,2288.84763 2016.46943,2288.4719 2020.83311,2287.90832 C2026.24408,2286.96902 2030.60775,2285.09042 2030.60775,2285.09042 C2038.98602,2281.33321 2046.14245,2273.63093 2050.15704,2266.86796 C2052.42615,2262.73503 2053.99708,2256.91135 2055.568,2250.14838 C2056.26619,2246.95475 2056.44074,2243.94898 2056.44074,2240.94322 C2056.44074,2240.19177 2056.44074,2238.87675 2056.61528,2237.56173 C2056.78983,2235.68312 2056.96438,2233.80452 2056.96438,2231.73805 L2056.96438,2223.4722 C2057.13893,2218.02424 2056.61528,2206.94048 2056.61528,2206.94048 C2056.96438,2201.1168 2056.09164,2190.97234 2055.39345,2185.14867 C2054.34617,2179.13713 2052.94979,2176.31923 2051.02977,2173.50132 C2050.50613,2172.74988 2048.76066,2168.99267 2048.23702,2168.24123 C2045.61881,2163.92044 2043.87334,2162.60542 2040.90604,2159.03607 C2038.98602,2156.59388 2034.0987,2152.64881 2027.98955,2150.58235 C2023.62587,2149.07947 2018.564,2147.013 2014.02577,2146.44942 C2011.58211,2146.0737 2006.86934,2145.88584 2004.42568,2146.0737 C1994.82558,2146.63728 1986.79641,2151.14593 1981.90909,2154.90314 C1980.68726,2155.84244 1979.46543,2157.16138 1976.25378,2161.07398 C1973.04212,2164.98659 1973.85605,2167.66714 1972.77218,2169.85918 C1972.12659,2171.16486 1970.95657,2183.45792 1970.95657,2185.14867 C1970.78202,2190.59662 1969.48071,2196.58816 1969.30617,2199.78179 C1968.78253,2207.48407 1969.17971,2211.48604 1968,2217.42381 C1968.23273,2224.43727 1969.04949,2233.91202 1970.45027,2245.84808 C1970.62482,2251.67175 1971.62039,2257.57174 1972.77218,2261.78782 C1973.92397,2266.00391 1972.77218,2261.56689 1976.25378,2270.25888 C1977.88637,2271.45117 1979.13147,2272.88829 1979.98907,2274.57023 C1981.27548,2277.09314 1981.37186,2278.95578 1982.59369,2280.08294 C1986.95737,2284.02801 1989.58917,2284.7147 1995.69832,2286.78116 Z M2288.68,2283.47846 C2291.08,2283.47846 2293.08,2285.47846 2293.28,2288.27846 C2293.68,2291.67846 2290.28,2293.07846 2288.48,2293.87846 C2285.48,2294.67846 2283.68,2294.07846 2282.08,2291.87846 C2279.88,2287.67846 2282.08,2284.47846 2286.88,2283.67846 C2287.28,2283.47846 2287.88,2283.47846 2288.68,2283.47846 Z" id="sarashino-m."></path>
        </g>
    </g>
</svg>